<svg xmlns="http://www.w3.org/2000/svg" viewBox="0 0 24 24" fill="none">
  <!-- Person kneeling making dua, facing right -->
  <!-- Head with kufi cap -->
  <circle cx="16" cy="4.5" r="2.2" stroke="#C8985E" stroke-width="1.3" fill="none"/>
  <path d="M13.8 3.2C13.8 3.2 14.5 2.3 16 2.3C17.5 2.3 18.2 3.2 18.2 3.2" stroke="#C8985E" stroke-width="1.3" stroke-linecap="round"/>
  <!-- Body torso -->
  <path d="M16 6.7C16 6.7 15.5 9 14 11C12.8 12.6 11 13.5 9.5 14" stroke="#C8985E" stroke-width="1.3" stroke-linecap="round" stroke-linejoin="round"/>
  <!-- Arms raised in dua -->
  <path d="M14.5 10C14.5 10 16 8.5 17.5 7.5" stroke="#C8985E" stroke-width="1.3" stroke-linecap="round"/>
  <path d="M17.5 7.5L19.5 5.5" stroke="#C8985E" stroke-width="1.3" stroke-linecap="round"/>
  <!-- Open hands -->
  <path d="M19.5 5.5C19.8 5.2 20.2 4.8 20.5 5C20.8 5.2 20.5 5.8 20.2 6.2" stroke="#C8985E" stroke-width="1.2" stroke-linecap="round"/>
  <!-- Kneeling legs -->
  <path d="M9.5 14C8.5 14.5 7 15 6 16C5 17 4.5 18 4.5 19" stroke="#C8985E" stroke-width="1.3" stroke-linecap="round" stroke-linejoin="round"/>
  <path d="M9.5 14C10 15.5 10 17 9.5 18.5C9 19.5 8 20 7 20" stroke="#C8985E" stroke-width="1.3" stroke-linecap="round" stroke-linejoin="round"/>
  <!-- Ground line -->
  <path d="M3 20.5H21" stroke="#C8985E" stroke-width="1.3" stroke-linecap="round"/>
</svg>
