<svg xmlns="http://www.w3.org/2000/svg" width="200" height="40" viewBox="0 0 200 40" fill="none">
  <!-- Sparkle row — 7 four-pointed stars in warm gold (#C8985E) with varying sizes and opacity -->

  <!-- Sparkle 1 (small, left) -->
  <path d="M20 12 L22 18 L28 20 L22 22 L20 28 L18 22 L12 20 L18 18 Z" fill="#C8985E" opacity="0.4"/>

  <!-- Sparkle 2 (medium) -->
  <path d="M45 10 L47.5 17.5 L55 20 L47.5 22.5 L45 30 L42.5 22.5 L35 20 L42.5 17.5 Z" fill="#C8985E" opacity="0.55"/>

  <!-- Sparkle 3 (small) -->
  <path d="M70 14 L71.5 18.5 L76 20 L71.5 21.5 L70 26 L68.5 21.5 L64 20 L68.5 18.5 Z" fill="#C8985E" opacity="0.7"/>

  <!-- Sparkle 4 (large, center) -->
  <path d="M100 6 L103.5 16.5 L114 20 L103.5 23.5 L100 34 L96.5 23.5 L86 20 L96.5 16.5 Z" fill="#C8985E" opacity="1.0"/>

  <!-- Sparkle 5 (small) -->
  <path d="M130 14 L131.5 18.5 L136 20 L131.5 21.5 L130 26 L128.5 21.5 L124 20 L128.5 18.5 Z" fill="#C8985E" opacity="0.7"/>

  <!-- Sparkle 6 (medium) -->
  <path d="M155 10 L157.5 17.5 L165 20 L157.5 22.5 L155 30 L152.5 22.5 L145 20 L152.5 17.5 Z" fill="#C8985E" opacity="0.55"/>

  <!-- Sparkle 7 (small, right) -->
  <path d="M180 12 L182 18 L188 20 L182 22 L180 28 L178 22 L172 20 L178 18 Z" fill="#C8985E" opacity="0.4"/>
</svg>
